<svg xmlns="http://www.w3.org/2000/svg" xmlns:xlink="http://www.w3.org/1999/xlink" width="512" zoomAndPan="magnify" viewBox="0 0 384 383.999986" height="512" preserveAspectRatio="xMidYMid meet" version="1.0"><defs><clipPath id="118ec43fb2"><path d="M 39.238281 40 L 343 40 L 343 342 L 39.238281 342 Z M 39.238281 40 " clip-rule="nonzero"/></clipPath><clipPath id="5fa4d3c8f4"><path d="M 191 340 L 195 340 L 195 345.898438 L 191 345.898438 Z M 191 340 " clip-rule="nonzero"/></clipPath><clipPath id="f864bbbe7c"><path d="M 218 38.398438 L 222 38.398438 L 222 41 L 218 41 Z M 218 38.398438 " clip-rule="nonzero"/></clipPath><clipPath id="4c51efa4fd"><path d="M 343 146 L 344.488281 146 L 344.488281 149 L 343 149 Z M 343 146 " clip-rule="nonzero"/></clipPath><clipPath id="3b8192e906"><path d="M 99.320312 95 L 284.570312 95 L 284.570312 187 L 99.320312 187 Z M 99.320312 95 " clip-rule="nonzero"/></clipPath><clipPath id="ddb34321f8"><path d="M 110 194 L 274 194 L 274 292.535156 L 110 292.535156 Z M 110 194 " clip-rule="nonzero"/></clipPath></defs><g clip-path="url(#118ec43fb2)"><path fill="#ffffff" d="M 340.265625 188.304688 C 339.328125 186.113281 338.3125 183.949219 337.332031 181.773438 C 335.628906 180.019531 334.835938 177.734375 333.796875 175.59375 C 333.726562 175.449219 333.617188 175.328125 333.710938 175.464844 C 333.011719 174.613281 332.507812 173.972656 332.003906 173.34375 C 331.933594 173.195312 331.890625 173.042969 331.875 172.882812 L 332.398438 172.175781 L 334.347656 172.371094 C 335.105469 169.9375 336.070312 167.59375 337.25 165.335938 C 337.542969 164.601562 337.753906 163.847656 337.886719 163.070312 C 337.546875 161.953125 337.214844 160.902344 336.898438 159.886719 C 335.796875 159.035156 334.785156 158.3125 333.742188 157.578125 C 333.550781 157.464844 333.347656 157.378906 333.128906 157.320312 C 333.574219 156.582031 333.984375 155.839844 334.496094 155.121094 C 334.953125 154.296875 335.582031 153.628906 336.378906 153.117188 C 337.027344 152.796875 337.578125 152.355469 338.03125 151.789062 C 338.125 152.136719 338.21875 152.496094 338.3125 152.835938 C 337.871094 153.980469 337.417969 154.984375 337.085938 156.042969 C 336.804688 156.957031 337.417969 157.601562 338.792969 157.808594 C 339.175781 157.144531 339.59375 156.46875 339.960938 155.769531 C 340.324219 155.140625 340.59375 154.472656 340.777344 153.769531 C 340.960938 153.066406 341.042969 152.351562 341.03125 151.625 C 341.019531 150.898438 340.910156 150.1875 340.707031 149.488281 C 340.5 148.792969 340.207031 148.132812 339.824219 147.515625 C 339.894531 147.09375 339.855469 146.679688 339.703125 146.277344 C 339.550781 145.871094 339.304688 145.535156 338.96875 145.265625 L 339.609375 142.101562 L 337.90625 138.941406 L 336.429688 138.242188 C 336.207031 137.617188 336.003906 137.019531 335.746094 136.3125 C 335.15625 135.828125 334.535156 135.390625 333.878906 135 C 332.890625 134.496094 331.78125 134.234375 330.820312 133.6875 C 330.007812 133.214844 329.273438 132.648438 328.609375 131.984375 C 328.195312 131.582031 328.355469 130.710938 327.324219 130.515625 L 325.191406 130.71875 C 324.289062 129.867188 325.234375 128.929688 325.0625 128.007812 C 324.875 127.832031 324.6875 127.480469 324.476562 127.464844 C 324.144531 127.476562 323.859375 127.601562 323.625 127.839844 C 322.769531 128.640625 322.769531 129.851562 322.285156 130.824219 C 321.363281 131.027344 320.453125 131.277344 319.554688 131.582031 C 319.296875 131.683594 319.09375 131.851562 318.941406 132.085938 L 318.234375 132.007812 C 318.101562 132.214844 318.011719 132.441406 317.960938 132.679688 C 317.90625 132.921875 317.902344 133.164062 317.9375 133.40625 C 317.972656 133.652344 318.050781 133.878906 318.167969 134.09375 C 318.289062 134.3125 318.441406 134.5 318.628906 134.660156 C 318.792969 134.8125 318.925781 134.988281 319.027344 135.1875 C 319.128906 135.386719 319.195312 135.597656 319.222656 135.820312 C 319.25 136.039062 319.238281 136.261719 319.191406 136.480469 C 319.140625 136.699219 319.054688 136.902344 318.933594 137.089844 C 318.234375 137.328125 317.640625 137.726562 317.15625 138.285156 C 316.667969 138.847656 316.359375 139.492188 316.222656 140.21875 C 316.070312 140.671875 315.808594 141.050781 315.4375 141.351562 C 314.230469 142.550781 313.339844 143.949219 312.761719 145.546875 C 312.632812 146.015625 312.378906 146.410156 312.003906 146.71875 C 311.628906 147.03125 311.199219 147.210938 310.714844 147.253906 C 310.605469 147.253906 310.519531 147.5 310.390625 147.660156 C 310.699219 148.113281 311.003906 148.574219 311.335938 149.085938 C 311.285156 150.253906 311.226562 151.457031 311.167969 152.582031 C 309.605469 153.296875 309.605469 153.296875 308.515625 155.140625 C 305.734375 155.300781 302.855469 155.515625 299.988281 155.625 C 299.328125 155.59375 298.71875 155.402344 298.15625 155.054688 C 296.945312 154.363281 295.792969 153.585938 294.632812 152.820312 C 294.582031 152.769531 294.535156 152.710938 294.5 152.648438 C 294.707031 152.324219 294.855469 151.976562 294.949219 151.601562 L 297.550781 150.355469 L 299.257812 151.25 C 299.949219 151.167969 300.585938 150.929688 301.164062 150.535156 C 301.742188 150.140625 302.191406 149.636719 302.519531 149.019531 C 302.902344 148.304688 303.34375 147.625 303.835938 146.980469 C 304.363281 147.792969 305.105469 148.292969 306.058594 148.472656 C 306.058594 147.328125 305.300781 146.503906 304.824219 145.566406 C 305.316406 144.832031 305.648438 144.035156 305.8125 143.167969 L 308.695312 141.464844 C 309.039062 140.632812 309.324219 139.777344 309.546875 138.90625 C 309.71875 138.054688 310.101562 137.097656 309.546875 135.972656 L 306.886719 135.121094 C 306.195312 133.363281 306.136719 133.355469 306.253906 131.804688 C 306.503906 128.582031 305.71875 125.519531 304.933594 122.425781 C 304.824219 122 304.722656 121.570312 304.644531 121.230469 C 304.769531 121.015625 304.933594 120.832031 305.132812 120.6875 C 305.332031 120.539062 305.554688 120.4375 305.800781 120.386719 C 306.042969 120.332031 306.285156 120.328125 306.53125 120.378906 C 306.773438 120.429688 307 120.523438 307.203125 120.667969 C 308.042969 121.253906 308.949219 121.699219 309.929688 122 C 311.445312 122.355469 312.960938 122.355469 314.476562 122 C 315.328125 120.414062 316.929688 119.277344 317.519531 117.429688 C 317.652344 117.050781 317.894531 116.765625 318.242188 116.574219 C 318.707031 116.300781 319.074219 115.925781 319.347656 115.460938 C 319.617188 114.992188 319.757812 114.488281 319.769531 113.949219 L 323.613281 111.546875 C 324 110.777344 324.375 110.035156 324.757812 109.261719 C 324.648438 108.894531 324.488281 108.554688 324.28125 108.238281 C 323.933594 107.910156 323.703125 107.515625 323.589844 107.050781 C 323.480469 106.585938 323.503906 106.128906 323.667969 105.679688 C 324.144531 104.367188 323.503906 103.566406 322.726562 102.832031 C 322.03125 102.65625 321.324219 102.589844 320.605469 102.632812 C 319.886719 102.675781 319.191406 102.828125 318.519531 103.085938 C 317.847656 103.347656 317.230469 103.703125 316.671875 104.152344 C 316.109375 104.605469 315.632812 105.128906 315.234375 105.730469 C 313.972656 105.78125 312.761719 105.867188 311.550781 105.867188 C 310.988281 105.855469 310.441406 105.761719 309.90625 105.585938 C 305.472656 104.273438 304.941406 104.015625 301.507812 100.46875 C 301.199219 100.089844 300.839844 99.757812 300.4375 99.480469 C 300.03125 99.203125 299.597656 98.988281 299.128906 98.835938 C 298.664062 98.683594 298.183594 98.601562 297.691406 98.589844 C 297.203125 98.578125 296.71875 98.636719 296.246094 98.765625 C 294.6875 99.066406 293.113281 99.285156 291.53125 99.414062 C 291.089844 99.503906 290.660156 99.476562 290.238281 99.320312 C 289.8125 99.167969 289.464844 98.914062 289.1875 98.558594 C 289.597656 97.035156 290.832031 95.636719 290.3125 93.914062 C 289.910156 93.222656 289.5625 92.566406 289.160156 91.945312 C 288.589844 91.089844 288.085938 90.921875 287.019531 91.195312 C 285.152344 91.6875 283.277344 92.164062 281.273438 92.675781 C 279.492188 90.648438 277.070312 90.121094 274.539062 89.828125 C 274.011719 88.976562 274.410156 88.414062 275.152344 88.003906 C 276.449219 87.289062 277.777344 86.625 279.050781 85.875 C 279.320312 85.710938 279.414062 85.257812 279.628906 84.875 L 278.453125 83.171875 C 276.660156 82.4375 275.042969 81.671875 273.386719 81.117188 C 270.214844 80.066406 267.078125 78.796875 263.582031 79.597656 C 262.65625 79.683594 261.730469 79.683594 260.804688 79.597656 C 259.875 79.621094 258.957031 79.703125 258.039062 79.855469 C 256.453125 80.175781 254.941406 80.707031 253.503906 81.449219 C 253.308594 81.269531 253.113281 81.082031 252.933594 80.886719 C 252.753906 80.691406 252.585938 80.757812 252.429688 80.65625 C 249.359375 78.558594 245.804688 78.257812 242.277344 77.894531 C 241.703125 77.773438 241.15625 77.839844 240.628906 78.097656 C 239.980469 78.511719 239.277344 78.796875 238.523438 78.949219 L 235.777344 79.273438 C 235.457031 78.363281 235.457031 77.449219 235.777344 76.539062 C 235.835938 76.226562 235.835938 75.917969 235.777344 75.609375 C 235.558594 75.171875 235.234375 74.832031 234.804688 74.59375 C 234.378906 74.355469 233.921875 74.253906 233.433594 74.292969 C 231.882812 74.394531 230.496094 73.964844 229.273438 73.007812 C 228.785156 72.628906 228.230469 72.414062 227.613281 72.355469 C 227 72.300781 226.414062 72.410156 225.863281 72.691406 C 225.332031 72.929688 224.777344 73.109375 224.210938 73.238281 C 224.179688 72.863281 223.996094 72.597656 223.65625 72.4375 C 223.3125 72.265625 223.050781 72.4375 222.878906 72.75 C 222.730469 72.984375 222.683594 73.238281 222.734375 73.511719 C 221.835938 73.664062 221 73.976562 220.21875 74.445312 C 219.4375 74.914062 218.765625 75.503906 218.207031 76.222656 C 218.121094 76.332031 217.867188 76.324219 217.679688 76.375 C 217.230469 76.238281 216.851562 75.996094 216.542969 75.640625 C 216.234375 75.285156 216.042969 74.878906 215.972656 74.414062 C 215.914062 74.183594 215.84375 73.953125 215.785156 73.730469 C 215.90625 73.160156 215.929688 72.640625 216 72.238281 C 217.082031 70.101562 217.925781 68.402344 218.769531 66.722656 C 218.683594 65.871094 218.597656 65.070312 218.53125 64.40625 C 218.257812 64.167969 217.976562 63.949219 217.679688 63.75 C 217.558594 63.679688 217.363281 63.75 217.105469 63.75 L 215.445312 66.441406 L 214.652344 65.46875 C 214.488281 64.523438 215.121094 63.558594 214.457031 62.699219 L 211.914062 61.503906 C 212.007812 61.121094 211.984375 60.730469 212.152344 60.652344 C 212.550781 60.425781 212.96875 60.238281 213.40625 60.089844 C 213.8125 59.933594 214.179688 59.710938 214.507812 59.421875 C 214.839844 59.132812 215.105469 58.800781 215.316406 58.414062 C 215.523438 58.03125 215.660156 57.625 215.726562 57.191406 C 215.792969 56.761719 215.78125 56.332031 215.691406 55.902344 L 214.789062 55 C 216.101562 53.636719 217.34375 52.230469 217.679688 50.089844 L 216.757812 48.136719 C 217.097656 47.046875 218.207031 47.949219 218.785156 47.234375 L 218.003906 45.476562 L 219.453125 42.75 C 219.394531 42.320312 219.25 41.925781 219.011719 41.566406 C 218.773438 41.207031 218.46875 40.921875 218.097656 40.703125 C 217.242188 40.839844 216.21875 40.300781 215.113281 41.332031 C 215.164062 43.660156 214.621094 45.835938 213.484375 47.863281 C 212.699219 48.625 212.132812 49.523438 211.777344 50.558594 C 211.683594 51.105469 211.523438 52.035156 211.367188 52.9375 C 210.863281 53.566406 210.410156 54.234375 210.003906 54.933594 C 209.835938 55.28125 210.003906 55.785156 210.003906 56.304688 L 213.320312 56.816406 C 213.40625 57.3125 213.320312 57.667969 212.9375 57.71875 C 212.015625 57.917969 211.085938 58.0625 209.988281 58.257812 C 209.554688 58.75 209.023438 59.332031 208.511719 59.960938 C 208.429688 60.117188 208.378906 60.277344 208.351562 60.449219 C 208.480469 61.558594 208.605469 62.691406 208.734375 63.816406 C 208.230469 63.585938 207.726562 63.355469 207.234375 63.101562 C 207.097656 62.804688 206.945312 62.519531 206.773438 62.246094 C 206.523438 61.96875 206.238281 61.730469 205.921875 61.53125 L 204.410156 61.445312 C 204.128906 61.582031 203.863281 61.75 203.617188 61.949219 C 202.941406 61.996094 202.273438 62.097656 201.613281 62.246094 C 201.28125 62.316406 200.96875 62.445312 200.644531 62.539062 C 200.1875 62.167969 199.945312 61.691406 199.910156 61.105469 C 199.78125 59.671875 199.839844 58.222656 198.742188 57.082031 C 197.183594 55.925781 195.460938 55.128906 193.574219 54.683594 C 192.503906 54.363281 191.464844 53.957031 190.464844 53.457031 C 189.277344 51.085938 187.761719 49.089844 184.945312 48.65625 C 183.796875 49.664062 185.210938 50.6875 184.945312 51.675781 C 183.53125 52.289062 182.601562 50.824219 181.347656 50.824219 C 180.144531 51.367188 180.121094 51.394531 180.207031 52.84375 C 180.078125 52.945312 179.96875 53.097656 179.832031 53.125 C 178.523438 53.433594 177.199219 53.503906 175.863281 53.34375 C 174.527344 53.183594 173.261719 52.796875 172.0625 52.1875 C 171.722656 51.453125 171.738281 50.890625 172.414062 50.480469 C 172.8125 50.234375 173.171875 49.925781 173.617188 49.628906 C 173.460938 49.183594 173.261719 48.761719 173.019531 48.359375 C 172.847656 48.128906 172.480469 48.050781 172.054688 47.839844 C 170.445312 47.984375 168.773438 48.503906 167.230469 48.800781 C 164.390625 49.960938 162.171875 51.769531 159.761719 53.371094 C 159.386719 54.410156 159 55.453125 158.695312 56.3125 C 158.769531 57.472656 159.121094 58.523438 158.839844 59.347656 C 158.269531 61.054688 158.71875 62.757812 158.550781 64.464844 C 159.605469 64.054688 159.617188 64.0625 160.628906 62.863281 C 160.972656 61.640625 161.304688 60.429688 161.578125 59.449219 C 162.308594 58.558594 163.25 58.058594 164.398438 57.949219 L 167.304688 59.074219 C 167.066406 59.742188 166.835938 60.398438 166.605469 61.054688 C 166.171875 61.007812 165.738281 61.035156 165.3125 61.140625 C 164.457031 61.503906 163.605469 61.992188 162.914062 62.382812 C 162.207031 63.457031 161.660156 64.445312 160.960938 65.308594 C 160.46875 65.824219 159.921875 66.277344 159.324219 66.671875 L 156.675781 66.867188 L 154.242188 68.121094 L 152.683594 70.519531 C 150.980469 70.398438 150.980469 70.398438 148.957031 71.242188 C 148.847656 71.132812 148.675781 71.039062 148.632812 70.902344 C 148.4375 70.320312 148.292969 69.726562 148.121094 69.136719 C 143.476562 66.511719 143.476562 66.511719 138.863281 65.777344 L 136.644531 67.183594 C 135.808594 66.964844 134.953125 66.855469 134.089844 66.851562 C 132.667969 66.96875 131.246094 66.96875 129.824219 66.851562 C 126.703125 66.742188 125.417969 67.652344 124.566406 70.558594 C 124.40625 71.015625 124.308594 71.480469 124.265625 71.957031 C 124.265625 73.304688 123.226562 74.261719 122.886719 75.472656 C 122.75 77.535156 122.117188 79.519531 122.492188 81.652344 C 122.695312 82.957031 122.464844 84.175781 121.792969 85.3125 L 119.996094 87.332031 C 119.933594 88.328125 119.882812 89.105469 119.832031 89.8125 L 118.570312 91.074219 C 115.433594 91.800781 112.6875 93.632812 110.136719 95.882812 C 109.773438 96.1875 109.390625 96.472656 108.996094 96.734375 C 108.738281 96.894531 108.46875 97.035156 108.195312 97.160156 L 105.960938 97.316406 L 104.460938 98.816406 C 104.179688 100.273438 103.964844 101.6875 103.609375 103.078125 C 103.25 104.46875 102.753906 105.832031 102.398438 107.207031 C 101.808594 109.199219 101.523438 111.238281 101.542969 113.320312 C 101.117188 113.984375 100.75 114.679688 100.445312 115.40625 C 100.300781 115.84375 100.191406 116.285156 100.113281 116.738281 C 96.148438 117.917969 92.105469 118.390625 87.980469 118.152344 C 87.050781 118.085938 86.136719 117.855469 85.207031 117.804688 C 82.421875 117.632812 81.011719 118.65625 80.21875 121.265625 C 80.144531 121.53125 80.21875 121.828125 80.101562 122.117188 C 80.03125 122.476562 79.886719 122.804688 79.667969 123.097656 L 79.332031 123.4375 C 79.332031 123.371094 79.332031 123.292969 79.332031 123.234375 L 78.96875 123.234375 C 78.820312 123.542969 78.96875 123.644531 79.179688 123.59375 C 77.722656 125.09375 76.359375 126.695312 74.355469 127.566406 C 74.035156 127.683594 73.769531 127.875 73.558594 128.140625 C 73.34375 128.402344 73.214844 128.703125 73.167969 129.039062 C 72.675781 128.523438 72.082031 128.179688 71.386719 128.007812 C 69.84375 128.417969 68.128906 128.726562 67.617188 130.917969 C 68.164062 130.960938 68.660156 131.15625 69.015625 131.011719 C 69.667969 130.6875 70.292969 130.316406 70.882812 129.894531 L 73.324219 129.519531 C 74.277344 130.601562 75.273438 131.71875 75.300781 133.3125 L 78.710938 134.25 L 75.710938 138.863281 C 74.347656 138.785156 72.898438 138.589844 71.558594 139.664062 L 70.304688 141.4375 C 69.367188 141.113281 69.367188 141.113281 69.160156 140.277344 C 72.949219 137.140625 73.101562 136.925781 73.800781 134.132812 C 73.714844 134.042969 73.613281 133.976562 73.5 133.933594 C 73.386719 133.886719 73.269531 133.871094 73.144531 133.875 C 73.023438 133.882812 72.90625 133.914062 72.796875 133.96875 C 72.691406 134.027344 72.597656 134.101562 72.519531 134.199219 C 72.109375 134.664062 71.738281 135.160156 71.40625 135.683594 L 69.308594 136.636719 C 69.242188 137.304688 69.019531 137.910156 68.632812 138.457031 C 68.25 139.003906 67.753906 139.421875 67.148438 139.707031 L 65.171875 139.535156 C 64.375 139.71875 63.6875 140.101562 63.109375 140.679688 C 62.9375 141.652344 62.75 142.726562 62.570312 143.800781 C 62.871094 144.566406 63.167969 145.300781 63.425781 145.949219 L 65.128906 147.191406 C 65.238281 148.421875 65.425781 149.691406 65.445312 150.953125 C 65.445312 152.386719 65.34375 153.816406 65.300781 155.257812 C 65.257812 156.519531 65.238281 157.816406 65.214844 159.054688 L 64.003906 161.054688 C 64.003906 162.386719 63.9375 163.65625 63.960938 164.925781 C 63.960938 165.710938 64.105469 166.488281 64.140625 166.8125 C 64.863281 168.183594 66.167969 168.558594 66.179688 169.855469 C 65.871094 169.933594 65.554688 169.976562 65.257812 170.070312 C 64.003906 170.46875 63.867188 170.980469 64.582031 172.761719 C 66.21875 173.539062 67.917969 174.390625 69.699219 175.132812 C 70.324219 175.292969 70.960938 175.363281 71.609375 175.347656 C 71.609375 176.199219 71.558594 177.007812 71.609375 177.757812 C 71.609375 177.835938 71.609375 177.914062 71.609375 177.988281 C 71.34375 178.347656 71.039062 178.6875 70.757812 179.054688 C 70.015625 180.136719 69.246094 181.195312 68.539062 182.296875 C 67.421875 182.6875 66.253906 182.933594 65.128906 183.257812 C 64.761719 183.285156 64.398438 183.253906 64.039062 183.164062 L 62.433594 181.066406 C 61.421875 180.214844 60.066406 180.078125 59.074219 179.277344 C 58.992188 179.207031 59.015625 179.003906 58.972656 178.757812 C 59.410156 178.007812 59.902344 177.195312 60.347656 176.351562 C 60.476562 176.058594 60.527344 175.75 60.5 175.429688 C 60.5 175.039062 60.191406 174.757812 59.929688 174.867188 C 59.210938 175.183594 58.539062 175.585938 57.789062 175.984375 C 57.703125 175.132812 57.609375 174.28125 57.558594 173.777344 C 55.640625 172.070312 53.941406 170.597656 52.347656 169.046875 C 51.433594 168.148438 50.386719 167.449219 49.207031 166.945312 C 48.03125 166.441406 46.800781 166.171875 45.519531 166.128906 C 44.25 166.070312 42.960938 166.042969 41.820312 166 C 41.5 166.097656 41.203125 166.238281 40.929688 166.425781 C 40.652344 166.613281 40.414062 166.839844 40.210938 167.101562 C 40.007812 167.367188 39.851562 167.652344 39.738281 167.964844 C 39.625 168.28125 39.5625 168.601562 39.550781 168.933594 C 39.4375 170.597656 39.761719 172.171875 40.523438 173.65625 L 42.824219 175.960938 C 44.28125 177.433594 45.75 178.859375 47.8125 179.550781 C 48.261719 179.746094 48.640625 180.03125 48.957031 180.40625 C 49.269531 180.78125 49.484375 181.207031 49.601562 181.679688 C 49.542969 181.996094 49.492188 182.304688 49.398438 182.816406 C 48.894531 183.199219 48.238281 183.667969 47.695312 184.164062 C 46.988281 184.808594 46.324219 185.496094 45.699219 186.21875 C 45.15625 186.757812 44.933594 187.410156 45.035156 188.167969 L 47.394531 190.53125 C 48.683594 190.128906 49.238281 189.082031 50.046875 188.347656 C 49.984375 187.917969 50.003906 187.492188 50.105469 187.070312 C 50.507812 186.039062 51.042969 185.066406 51.488281 184.144531 C 51.648438 183.128906 51.804688 182.191406 51.914062 181.460938 C 52.765625 180.417969 53.515625 179.515625 54.914062 180.179688 C 55.359375 181.117188 55.835938 182.105469 56.363281 183.207031 C 55.777344 184.445312 55.179688 185.722656 54.566406 187.019531 C 55.003906 188.40625 55.683594 189.660156 56.601562 190.785156 C 56.804688 191.128906 57.070312 191.410156 57.402344 191.628906 C 57.730469 191.847656 58.09375 191.980469 58.488281 192.03125 C 59.9375 191.894531 60.464844 190.515625 61.652344 189.796875 C 62.121094 189.894531 62.535156 190.101562 62.898438 190.414062 C 63.261719 190.730469 63.523438 191.113281 63.6875 191.5625 L 62.246094 193.003906 C 62.289062 193.632812 62.324219 194.105469 62.359375 194.613281 C 61.949219 195.425781 61.503906 196.261719 61.105469 197.121094 C 60.796875 197.820312 60.550781 198.519531 60.320312 199.175781 C 60.0625 199.402344 59.792969 199.613281 59.511719 199.808594 C 58.550781 200.558594 57.722656 201.433594 57.03125 202.433594 C 56.746094 202.761719 56.523438 203.125 56.359375 203.527344 C 56.191406 203.925781 56.09375 204.34375 56.058594 204.773438 C 56.027344 205.207031 56.0625 205.632812 56.164062 206.050781 C 56.269531 206.472656 56.433594 206.867188 56.664062 207.234375 C 55.957031 207.863281 55.289062 208.546875 54.625 209.246094 C 54.042969 210.003906 53.367188 210.664062 52.597656 211.234375 C 51.574219 211.828125 51.078125 212.835938 50.277344 213.558594 C 49.476562 214.285156 48.382812 214.710938 47.523438 215.402344 C 46.761719 216.003906 46.09375 216.699219 45.519531 217.480469 C 44.785156 218.503906 44.1875 219.621094 43.582031 220.628906 L 43.90625 221.625 C 43.738281 221.863281 43.550781 222.101562 43.394531 222.359375 C 43.328125 222.476562 43.261719 222.742188 43.300781 222.769531 C 43.429688 222.871094 43.570312 222.886719 43.722656 222.824219 C 43.871094 222.761719 43.957031 222.648438 43.976562 222.488281 C 44.023438 222.203125 44.023438 221.917969 43.976562 221.632812 L 52.339844 218.609375 C 53.578125 218.472656 55.75 218.609375 57.457031 217.140625 C 58.367188 215.855469 59.324219 214.582031 60.191406 213.253906 C 60.347656 213.023438 60.484375 212.800781 60.617188 212.570312 C 61.878906 214.175781 63.394531 215.480469 65.171875 216.484375 C 65.121094 217.210938 65.078125 217.917969 65.027344 218.675781 L 66.355469 219.042969 C 66.355469 219.476562 66.3125 219.894531 66.289062 220.328125 C 64.710938 221.183594 63.476562 220.152344 61.933594 219.800781 C 60.882812 220.082031 59.636719 220.347656 58.4375 220.757812 C 57.019531 221.234375 55.613281 220.757812 54.308594 220.816406 C 52.433594 221.667969 52.867188 223.59375 52.160156 225.078125 C 50.292969 225.609375 48.027344 225.394531 46.652344 227.5 C 46.652344 227.996094 46.652344 228.609375 46.695312 229.25 C 45.84375 229.894531 44.886719 228.746094 43.8125 229.300781 C 43.234375 230.246094 42.578125 231.320312 41.9375 232.351562 C 42.601562 233.203125 43.804688 233.203125 44.085938 234.277344 C 44.085938 234.890625 44.011719 235.507812 43.96875 236.15625 C 44.355469 236.4375 44.765625 236.6875 45.195312 236.90625 C 45.523438 237.054688 45.863281 237.144531 46.222656 237.171875 C 46.582031 237.203125 46.933594 237.171875 47.277344 237.074219 C 47.625 236.980469 47.945312 236.832031 48.238281 236.625 C 48.535156 236.417969 48.785156 236.167969 48.988281 235.871094 C 49.84375 234.832031 49.773438 233.484375 50.269531 232.523438 L 52.707031 230.75 L 55.402344 228.847656 C 55.699219 227.320312 55.714844 227.3125 55.136719 226.136719 C 54.957031 225.761719 54.582031 225.429688 55.136719 224.992188 C 56.472656 225.476562 57.722656 226.121094 58.886719 226.929688 L 60.3125 225.515625 C 60.730469 225.273438 60.867188 225.179688 61.003906 225.121094 L 63.902344 223.875 C 64.269531 223.9375 64.363281 224.226562 64.054688 224.492188 C 63.117188 225.300781 62.132812 226.054688 61.105469 226.75 C 60.796875 226.996094 60.449219 227.15625 60.0625 227.230469 C 59.675781 227.308594 59.292969 227.289062 58.914062 227.175781 C 58.308594 227.839844 57.207031 228.089844 57.277344 229.289062 C 57.839844 230.058594 58.742188 229.699219 59.46875 229.957031 C 59.519531 231.285156 57.667969 231.585938 57.824219 233.015625 C 59.410156 232.726562 60.59375 231.574219 62.214844 231.039062 C 62.214844 231.617188 62.214844 232.164062 62.214844 232.742188 L 62.886719 233.886719 C 61.691406 234.558594 61.921875 236.179688 60.890625 236.964844 C 54.472656 237.902344 54.472656 237.902344 50.832031 239.4375 C 49.203125 239.640625 47.664062 239.355469 46.21875 238.585938 C 45.3125 238.132812 44.390625 238.101562 43.457031 238.480469 C 43.222656 238.695312 43.019531 238.933594 42.84375 239.199219 C 42.6875 239.460938 42.585938 239.746094 42.542969 240.050781 C 42.5 240.367188 42.523438 240.675781 42.621094 240.980469 C 42.816406 241.574219 43.070312 242.144531 43.386719 242.683594 C 43.503906 242.917969 43.660156 243.121094 43.851562 243.292969 C 44.046875 243.46875 44.261719 243.605469 44.503906 243.699219 C 44.746094 243.792969 45 243.839844 45.257812 243.84375 C 45.519531 243.84375 45.769531 243.800781 46.015625 243.707031 C 46.449219 243.351562 47.054688 242.855469 47.652344 242.328125 C 48.242188 241.777344 48.921875 241.382812 49.695312 241.140625 C 50.464844 240.898438 51.25 240.832031 52.050781 240.945312 C 53.132812 241.082031 54.214844 241.160156 55.136719 241.253906 C 55.988281 240.871094 56.636719 240.273438 57.507812 240.597656 C 57.4375 240.894531 57.445312 241.1875 57.53125 241.480469 C 57.617188 241.773438 57.769531 242.023438 57.992188 242.234375 C 58.648438 242.574219 59.519531 242.132812 60.125 242.753906 C 60.066406 243.207031 60.003906 243.65625 59.9375 244.101562 C 60.941406 244.792969 60.960938 244.910156 60.097656 245.34375 C 59.109375 244.953125 58.648438 243.640625 57.257812 243.726562 L 56.167969 244.332031 C 55.734375 244.167969 55.285156 244.054688 54.820312 244 C 54.652344 244 54.316406 244.390625 54.316406 244.605469 C 54.316406 244.816406 54.632812 245.21875 54.8125 245.226562 C 55.273438 245.179688 55.726562 245.085938 56.167969 244.945312 C 57.242188 245.617188 58.332031 246.273438 59.367188 247 C 59.679688 247.300781 59.953125 247.640625 60.175781 248.015625 C 59.988281 248.398438 59.929688 248.824219 59.714844 248.917969 C 58.308594 249.582031 57.03125 250.433594 55.878906 251.476562 L 51.617188 251.09375 C 51.769531 250.136719 53.125 249.839844 52.917969 248.585938 L 49.976562 247.390625 C 49.96875 247.058594 49.867188 246.753906 49.675781 246.480469 C 49.488281 246.203125 49.238281 246.003906 48.929688 245.875 C 47.539062 245.824219 47.316406 247.1875 46.523438 247.84375 L 45.152344 247.792969 C 44.367188 249.496094 44.632812 249.949219 46.996094 251.355469 C 47.613281 251.355469 48.230469 251.398438 48.84375 251.484375 C 49.023438 251.484375 49.125 251.945312 49.238281 252.140625 C 48.957031 252.542969 48.699219 252.925781 48.382812 253.394531 C 48.832031 254.746094 49.386719 256.054688 50.046875 257.316406 C 50.898438 258.644531 51.820312 260.011719 53.542969 260.179688 L 55.203125 259.636719 C 57.046875 259.796875 58.617188 259.976562 60.21875 260.042969 C 60.855469 260.046875 61.476562 259.941406 62.078125 259.71875 C 62.476562 259.613281 62.824219 259.414062 63.125 259.132812 C 63.429688 258.851562 63.648438 258.515625 63.78125 258.125 C 63.867188 257.644531 63.882812 257.164062 63.832031 256.675781 L 61.515625 257.476562 C 60.976562 257.1875 60.933594 256.734375 61.292969 256.371094 C 62.414062 255.171875 63.753906 254.316406 65.316406 253.8125 L 67.875 255.097656 C 68.726562 255.535156 69.578125 255.953125 70.433594 256.429688 C 71.308594 256.804688 72.144531 257.261719 72.9375 257.792969 C 73.6875 258.40625 74.765625 258.28125 75.394531 259.03125 C 75.394531 259.363281 75.394531 259.679688 75.351562 259.984375 L 76.929688 260.242188 L 78.039062 261.800781 C 78.679688 262.109375 79.351562 262.210938 80.058594 262.109375 C 80.761719 262.007812 81.378906 261.722656 81.910156 261.246094 L 82.933594 258.269531 C 83.015625 257.113281 82.597656 256.300781 82.632812 255.601562 C 84.605469 257.089844 86.394531 258.769531 88.003906 260.640625 C 88.375 261.058594 88.628906 261.535156 88.761719 262.074219 C 89.074219 263.433594 89.65625 264.660156 90.515625 265.757812 C 91.375 266.855469 92.421875 267.71875 93.667969 268.347656 C 95.472656 268.441406 96.847656 268.511719 98.226562 268.597656 C 98.972656 268.730469 99.703125 268.660156 100.410156 268.390625 C 101.238281 268.003906 102.09375 267.941406 102.96875 268.210938 L 103.460938 268.605469 C 102.949219 268.484375 102.421875 268.441406 101.902344 268.367188 C 99.90625 268.851562 99.464844 270.667969 98.636719 272.195312 C 97.332031 272.824219 96.195312 273.675781 95.226562 274.75 C 94.503906 275.648438 93.582031 276.214844 92.457031 276.457031 C 92.089844 276.558594 91.953125 276.839844 92.039062 277.308594 L 92.59375 277.863281 C 93.882812 277.886719 95.152344 277.722656 96.394531 277.371094 C 96.523438 277.371094 96.617188 277.15625 96.710938 277.0625 C 96.820312 276.769531 96.878906 276.46875 96.878906 276.160156 C 96.753906 275.8125 96.75 275.46875 96.875 275.121094 C 96.996094 274.773438 97.214844 274.507812 97.527344 274.316406 C 98.230469 274.171875 98.9375 274.125 99.652344 274.179688 C 101.773438 274.617188 103.0625 273.761719 103.574219 271.777344 C 103.769531 270.976562 104.511719 270.546875 104.765625 269.847656 C 106.324219 271.546875 107.609375 273.4375 108.613281 275.511719 C 108.875 276.003906 109.125 276.507812 109.464844 276.976562 C 109.785156 277.535156 110.164062 278.046875 110.597656 278.519531 C 112.449219 280.222656 114.152344 282.058594 115.714844 284.027344 C 117.320312 285.953125 119.027344 287.785156 120.832031 289.527344 C 122.996094 290.378906 124.335938 292.214844 125.945312 293.789062 C 126.917969 294.621094 127.730469 295.589844 128.382812 296.691406 C 128.300781 298.027344 128.300781 299.367188 128.382812 300.707031 C 128.5625 302.078125 129.109375 303.398438 129.363281 304.773438 C 129.773438 306.988281 131.171875 308.113281 133.246094 308.660156 C 134.769531 309.070312 136.269531 309.582031 137.796875 310 C 141.207031 310.917969 144.617188 311.925781 148.199219 311.859375 C 148.484375 311.859375 148.769531 311.882812 149.050781 311.925781 C 148.75 312.519531 148.699219 313.132812 148.898438 313.765625 C 150.289062 316.324219 153.160156 318.03125 155.070312 321.59375 C 155.507812 322.226562 154.335938 323.488281 154.296875 324.824219 L 155.089844 325.925781 L 154.996094 326.003906 L 155.113281 326.003906 C 155.011719 326.332031 155.023438 326.652344 155.152344 326.972656 C 155.277344 327.292969 155.488281 327.539062 155.789062 327.707031 C 156.539062 327.519531 157.492188 328.066406 158.34375 327.476562 C 158.367188 327.375 158.367188 327.273438 158.34375 327.171875 L 158.421875 327.253906 C 159.25 327.917969 159.757812 328.769531 159.949219 329.8125 C 159.976562 330.070312 160.046875 330.316406 160.164062 330.546875 C 160.285156 330.777344 160.4375 330.980469 160.628906 331.15625 C 160.820312 331.332031 161.035156 331.46875 161.277344 331.5625 C 161.519531 331.660156 161.769531 331.710938 162.027344 331.714844 C 163.230469 331.824219 164.414062 332.089844 165.617188 332.175781 C 166.195312 332.144531 166.726562 332.28125 167.21875 332.582031 C 167.710938 332.882812 168.074219 333.296875 168.3125 333.820312 C 168.425781 334.175781 168.617188 334.480469 168.882812 334.742188 C 171.007812 336.34375 174.449219 335.976562 175.652344 334.035156 C 176.566406 332.542969 177.964844 331.367188 178.253906 329.601562 C 179.105469 329.539062 179.480469 329.96875 179.566406 330.554688 C 179.632812 331.203125 179.65625 331.851562 179.632812 332.5 C 179.597656 332.851562 179.660156 333.183594 179.828125 333.496094 C 179.996094 333.808594 180.238281 334.042969 180.554688 334.203125 C 181.375 333.996094 182.046875 333.558594 182.566406 332.890625 C 183.609375 331.835938 184.652344 330.78125 185.695312 329.738281 C 186.617188 330.128906 187.402344 330.648438 188.484375 330.171875 C 188.964844 329.355469 189.398438 328.519531 189.789062 327.65625 C 189.894531 327.394531 189.976562 327.125 190.027344 326.847656 C 191.066406 326.511719 191.835938 325.863281 192.339844 324.894531 C 192.40625 324.75 192.636719 324.671875 192.789062 324.578125 L 194.09375 323.792969 C 194.695312 324.167969 195.234375 324.617188 195.714844 325.132812 C 195.824219 325.28125 195.921875 325.4375 196.003906 325.601562 C 195.6875 326.53125 195.074219 327.382812 195.476562 328.527344 L 197.078125 330.121094 C 197.316406 331.59375 198.003906 332.804688 199.152344 333.761719 C 199.636719 334.128906 200.234375 334.484375 200.214844 335.234375 C 199.585938 335.679688 199.015625 336.195312 198.511719 336.777344 C 197.949219 337.632812 196.804688 337.511719 196.3125 338.355469 C 196.746094 339.464844 197.710938 338.628906 198.347656 338.945312 C 198.640625 339.636719 198.179688 340.574219 199.066406 341.058594 C 199.386719 341.035156 199.683594 340.933594 199.949219 340.75 C 200.21875 340.566406 200.417969 340.328125 200.558594 340.035156 C 201.28125 338.621094 201.949219 337.164062 203.378906 336.175781 C 204.097656 336.046875 204.890625 335.953125 205.65625 335.765625 C 206.128906 335.660156 206.550781 335.460938 206.925781 335.160156 C 207.203125 334.78125 207.40625 334.363281 207.539062 333.914062 C 205.929688 333.597656 204.589844 334.765625 203.003906 334.117188 C 202.039062 333.640625 201.265625 332.945312 200.695312 332.03125 L 199.839844 329.515625 L 198.203125 328.023438 L 198.203125 327.980469 C 199.203125 327.980469 199.449219 327.835938 200.632812 327.128906 C 202.234375 326.066406 203.992188 325.542969 205.914062 325.566406 C 207.285156 325.644531 208.648438 325.898438 209.917969 326.0625 L 212.128906 324.253906 C 212.972656 324.363281 213.679688 324.742188 214.242188 325.378906 L 213.882812 326.835938 C 213.621094 327.914062 213.398438 328.996094 213.210938 330.085938 C 213.203125 330.414062 213.242188 330.734375 213.328125 331.050781 C 213.886719 332.195312 214.71875 333.089844 215.820312 333.734375 C 217.039062 334.042969 218.25 333.996094 219.441406 333.597656 L 222.894531 329.933594 C 223.253906 329.753906 223.664062 329.507812 224.097656 329.328125 C 224.734375 329.132812 225.230469 328.753906 225.589844 328.195312 C 225.710938 326.742188 224.386719 326.15625 223.742188 325.140625 C 224.816406 325.78125 225.683594 326.710938 226.800781 327.050781 C 227.15625 328.074219 227.589844 329.0625 228.105469 330.019531 C 228.714844 330.835938 229.386719 331.601562 230.117188 332.3125 L 233.058594 332.148438 C 233.570312 331.730469 232.574219 330.726562 233.65625 330.742188 C 234.398438 331.945312 234.363281 334.015625 236.769531 333.488281 C 237.867188 331.332031 236.273438 329.0625 237.050781 326.667969 C 239.164062 326.8125 239.699219 328.859375 240.921875 329.53125 C 241.5 331.5 240.535156 333.523438 242.039062 335.03125 C 244.992188 334.175781 247.464844 332.570312 249.445312 330.214844 C 250.214844 329.25 250.886719 328.246094 252.242188 328.089844 C 254.101562 326.546875 256.132812 325.269531 258.332031 324.261719 C 258.621094 324.117188 258.78125 323.707031 258.96875 323.460938 C 259.949219 323.300781 260.972656 323.949219 261.75 323.171875 C 262.007812 322.902344 262.3125 322.707031 262.664062 322.59375 C 263.019531 322.476562 263.378906 322.449219 263.746094 322.515625 C 264.390625 322.484375 265.015625 322.351562 265.621094 322.121094 C 265.988281 321.5 266.21875 321.125 266.335938 320.929688 L 273.96875 321.371094 C 275.035156 319.890625 275.671875 318.363281 276.765625 317.058594 C 277.917969 315.476562 278.84375 313.769531 279.550781 311.941406 C 280.328125 310.238281 280.710938 309.53125 281.214844 309.136719 C 281.09375 309.542969 281.09375 309.945312 281.214844 310.347656 C 281.367188 310.347656 281.546875 310.417969 281.667969 310.347656 C 281.933594 310.207031 282.191406 310.042969 282.433594 309.863281 L 283.003906 308.457031 C 283.335938 308.363281 283.695312 308.257812 284.148438 308.113281 C 284.222656 308.113281 284.292969 308.003906 284.515625 307.816406 C 284.417969 307.328125 284.242188 306.871094 283.984375 306.445312 L 283.867188 306.339844 C 283.996094 306.042969 284.105469 305.753906 284.234375 305.488281 L 288.085938 302.929688 C 288.5625 302.128906 288.9375 301.457031 289.339844 300.800781 C 290.542969 300.261719 291.683594 299.707031 292.296875 298.242188 C 292.402344 297.535156 292.546875 296.605469 292.671875 295.742188 L 294.539062 293.5625 C 294.363281 293.007812 294.21875 292.570312 294.046875 292.027344 C 293.253906 292.332031 292.554688 292.675781 291.8125 292.878906 C 290.734375 293.039062 289.769531 293.460938 288.914062 294.140625 C 288.0625 295.402344 287.558594 297.371094 285.402344 298.546875 C 284.617188 298.898438 283.210938 298.234375 282.050781 299.214844 C 281.300781 300.84375 280.5 302.554688 279.75 304.285156 C 279.691406 304.484375 279.691406 304.679688 279.75 304.875 L 279.6875 304.875 C 278.488281 305.105469 277.289062 305.089844 276.097656 304.820312 C 274.902344 304.554688 273.8125 304.0625 272.824219 303.339844 C 272.644531 303.203125 272.296875 303.289062 271.929688 303.261719 L 271.007812 304.773438 C 268.398438 304.875 268.398438 304.875 267.15625 303.742188 C 269.054688 302.214844 269.183594 301.976562 269.140625 299.597656 C 269.136719 298.757812 269.070312 297.921875 268.9375 297.089844 C 268.914062 296.964844 268.898438 296.839844 268.894531 296.714844 C 269.246094 295.820312 269.703125 294.984375 270.257812 294.199219 C 270.863281 293.269531 271.539062 292.382812 272.144531 291.453125 C 272.308594 291.109375 272.433594 290.753906 272.519531 290.378906 C 272.519531 290.304688 272.519531 290.21875 272.519531 290.140625 C 273.082031 289.136719 273.652344 288.128906 274.28125 287.019531 L 273.011719 285.894531 C 274.871094 286.433594 275.152344 286.261719 280.234375 286.015625 C 281.683594 285.367188 283.167969 284.769531 284.589844 284.0625 C 285.324219 283.734375 285.976562 283.285156 286.542969 282.710938 C 287.109375 282.140625 287.550781 281.484375 287.875 280.746094 C 288.027344 280.488281 288.21875 280.257812 288.445312 280.054688 L 289.597656 279.535156 C 291.121094 278.519531 291.429688 276.738281 292.84375 275.84375 C 294.257812 274.949219 294.660156 273.285156 295.785156 272.125 C 296.332031 271.570312 296.960938 271.042969 297.003906 270.308594 C 297.046875 269.578125 296.859375 269.234375 296.808594 268.816406 L 298.632812 265.917969 L 300.058594 264.835938 C 300.355469 264.074219 300.710938 263.34375 301.132812 262.644531 C 301.625 262.0625 302.164062 261.523438 302.75 261.035156 C 303.324219 261.886719 302.835938 262.859375 303.101562 263.738281 C 303.324219 264.476562 303.535156 265.246094 304.347656 265.585938 C 305.070312 265.285156 305.8125 265.046875 306.570312 264.863281 C 307.472656 264.753906 308.375 264.703125 309.28125 264.707031 L 313.929688 261.996094 C 316.734375 259.292969 319.203125 256.3125 321.339844 253.054688 C 322.191406 249.4375 323.574219 245.703125 323.894531 241.484375 C 323.320312 240.585938 323.085938 239.605469 323.195312 238.542969 C 323.203125 237.335938 323.117188 236.136719 322.941406 234.945312 C 323.214844 234.210938 324 233.921875 323.71875 233.035156 L 322.515625 231.839844 C 322.9375 231.511719 323.308594 231.132812 323.625 230.703125 C 323.945312 230.277344 324.199219 229.8125 324.390625 229.3125 C 324.582031 228.8125 324.699219 228.296875 324.75 227.765625 C 324.800781 227.234375 324.777344 226.703125 324.679688 226.179688 C 323.828125 224.585938 321.925781 224.890625 321.082031 223.621094 C 320.929688 223.355469 320.824219 223.070312 320.757812 222.769531 C 320.710938 222.132812 320.738281 221.496094 320.84375 220.867188 C 321.035156 220.09375 321.28125 219.34375 321.585938 218.609375 C 322.167969 217.117188 322.539062 215.578125 322.695312 213.988281 C 322.71875 213.671875 322.632812 213.386719 322.445312 213.132812 C 322.277344 212.9375 321.925781 212.886719 321.492188 212.707031 C 320.027344 213.730469 318.140625 214.21875 316.648438 215.460938 C 316.390625 215.65625 316.097656 215.773438 315.777344 215.820312 C 315.457031 215.863281 315.144531 215.824219 314.839844 215.707031 C 313.589844 214.855469 314.089844 213.371094 313.632812 212.007812 L 312.234375 209.449219 C 312.03125 209.332031 311.820312 209.234375 311.601562 209.160156 C 311.210938 209.09375 310.929688 208.871094 311.054688 208.574219 C 311.230469 208.328125 311.46875 208.183594 311.765625 208.136719 C 312.210938 208.078125 312.660156 208.042969 313.109375 208.035156 C 313.339844 207.183594 313.554688 206.457031 313.757812 205.75 C 315.257812 205.007812 315.464844 205 315.644531 205.75 C 315.359375 206.113281 315.109375 206.5 314.894531 206.910156 C 314.808594 207.113281 314.976562 207.421875 315.046875 207.761719 L 317.867188 207.472656 C 317.722656 208.574219 317.605469 209.5 317.46875 210.550781 C 317.988281 211.472656 318.535156 212.417969 319.921875 212.253906 C 320.417969 212.042969 320.828125 211.726562 321.15625 211.296875 C 321.484375 210.871094 321.6875 210.390625 321.765625 209.859375 C 321.527344 209.058594 321.21875 208.007812 320.972656 207.164062 C 320.058594 206.414062 318.890625 206.613281 318.363281 205.640625 C 318.363281 205.496094 318.320312 205.296875 318.363281 205.203125 C 319.429688 203.839844 320.503906 202.484375 321.824219 200.8125 C 322.003906 199.464844 322.25 197.734375 322.4375 196.003906 C 322.4375 195.730469 322.234375 195.425781 322.113281 195.152344 L 320.570312 194.300781 C 320.332031 193.773438 320.257812 193.222656 320.347656 192.648438 C 320.433594 192.078125 320.671875 191.578125 321.058594 191.144531 C 321.058594 191.144531 321.058594 191.195312 321.058594 191.222656 C 321.058594 191.246094 321.058594 191.164062 321.058594 191.136719 C 321.15625 191.714844 321.296875 192.285156 321.484375 192.839844 C 321.613281 193.164062 321.996094 193.183594 322.335938 193.019531 L 325.253906 185.988281 L 324.441406 185.03125 C 324.492188 183.777344 324.554688 182.523438 324.613281 181.230469 C 325.847656 178.988281 326.214844 176.257812 328.234375 174.050781 C 329.617188 175.917969 331.648438 176.914062 332.992188 178.75 C 333.144531 179.195312 333.246094 179.652344 333.308594 180.121094 C 333.375 181.15625 333.613281 182.148438 334.027344 183.101562 C 334.441406 184.054688 335.003906 184.90625 335.714844 185.664062 C 336.15625 186.117188 336.574219 186.589844 336.96875 187.085938 C 339.132812 190.277344 340.632812 193.695312 340.242188 197.683594 C 340.152344 198.464844 340.3125 199.1875 340.71875 199.859375 L 342.421875 198.519531 C 342.855469 196.71875 342.761719 194.945312 342.140625 193.199219 C 341.597656 191.546875 340.949219 189.917969 340.265625 188.304688 Z M 340.265625 188.304688 " fill-opacity="1" fill-rule="nonzero"/></g><path fill="#ffffff" d="M 340.726562 199.996094 L 340.804688 199.933594 C 340.804688 199.933594 340.804688 199.882812 340.804688 199.859375 L 340.710938 199.933594 Z M 340.726562 199.996094 " fill-opacity="1" fill-rule="nonzero"/><path fill="#ffffff" d="M 338.742188 200.480469 L 336.4375 195.367188 C 334.945312 193.992188 333.878906 192.339844 332.074219 191.621094 L 331.125 192.144531 C 331.058594 193.789062 332.746094 194.871094 332.609375 196.773438 C 330.792969 197.046875 328.988281 195.730469 327.136719 196.441406 C 327.054688 196.628906 327.007812 196.824219 327 197.03125 C 326.988281 197.238281 327.015625 197.4375 327.078125 197.632812 C 327.140625 197.828125 327.238281 198.007812 327.363281 198.167969 C 327.492188 198.332031 327.640625 198.464844 327.816406 198.570312 C 328.429688 198.484375 329.042969 198.441406 329.660156 198.445312 C 330.28125 198.496094 330.886719 198.785156 331.511719 198.820312 C 332.125 198.789062 332.738281 198.71875 333.34375 198.605469 C 333.453125 198.605469 333.582031 198.765625 333.710938 198.859375 C 334.144531 199.765625 333.710938 200.320312 332.816406 200.796875 L 329.25 201.019531 C 328.484375 201.53125 327.84375 202.007812 327.152344 202.390625 C 326.300781 202.851562 325.449219 203.242188 324.707031 203.59375 C 323.816406 204.726562 323.28125 206.007812 323.101562 207.4375 L 324.023438 210.285156 L 325.210938 210.917969 C 328.089844 209.117188 331.585938 208.871094 334.859375 208.078125 C 336.097656 208.9375 337.460938 209.476562 338.953125 209.6875 L 339.761719 208.503906 C 339.429688 207.457031 339.097656 206.414062 338.757812 205.367188 C 339.335938 203.703125 341.316406 202.960938 341.5625 201.035156 L 340.710938 200.003906 C 340.148438 200.480469 339.585938 201.027344 338.742188 200.480469 Z M 338.742188 200.480469 " fill-opacity="1" fill-rule="nonzero"/><path fill="#ffffff" d="M 81.328125 110.488281 C 82.367188 109.773438 83.359375 108.996094 84.269531 108.324219 L 86.648438 107.878906 C 87.023438 106.847656 87.355469 105.960938 87.722656 104.9375 L 90.988281 101.671875 L 94.699219 100.878906 C 95.175781 101.117188 95.464844 101.398438 95.148438 101.929688 C 94.636719 102.457031 93.554688 102.441406 93.589844 103.523438 C 94.28125 104.28125 95.292969 104.035156 96.148438 104.375 C 97.128906 103.789062 97.828125 102.960938 98.246094 101.894531 C 98.613281 100.820312 99.226562 99.914062 100.085938 99.175781 C 101.742188 97.808594 102.429688 95.832031 103.265625 93.964844 C 103.550781 93.226562 103.796875 92.476562 104 91.714844 C 104.308594 90.808594 104.707031 89.941406 104.921875 89.019531 C 105.039062 88.289062 105.097656 87.558594 105.097656 86.820312 C 105.515625 85.5 106.941406 84.851562 106.804688 83.359375 L 104.640625 82.121094 C 104.535156 82.796875 104.460938 83.332031 104.382812 83.828125 C 103.617188 85.1875 102.503906 86.148438 101.050781 86.707031 C 99.925781 88.011719 99.027344 89.121094 98.058594 90.171875 C 97.085938 91.21875 96.003906 92.199219 95.125 93.050781 L 93.351562 97.050781 C 91.851562 97.339844 91.644531 98.910156 90.410156 99.507812 C 89.171875 100.101562 88.523438 101.160156 87.5625 101.996094 C 86.597656 102.832031 85.523438 103.523438 84.644531 104.425781 C 83.765625 105.328125 83.078125 106.414062 82.273438 107.402344 C 81.472656 108.390625 80.179688 108.886719 79.980469 110.308594 C 80.125 110.402344 80.253906 110.554688 80.398438 110.566406 C 80.71875 110.632812 81.027344 110.605469 81.328125 110.488281 Z M 81.328125 110.488281 " fill-opacity="1" fill-rule="nonzero"/><path fill="#ffffff" d="M 133.21875 65.25 C 135.488281 64.710938 136.425781 62.453125 137.917969 61.300781 C 138.53125 60.226562 139.035156 59.417969 139.476562 58.574219 C 139.6875 58.148438 139.839844 57.707031 139.929688 57.242188 C 139.996094 57.003906 139.972656 56.773438 139.855469 56.554688 C 139.738281 56.335938 139.558594 56.1875 139.324219 56.109375 C 138.621094 56.703125 137.855469 57.195312 137.019531 57.582031 C 135.796875 58.054688 134.78125 58.808594 133.976562 59.84375 C 133.796875 60.558594 133.609375 61.328125 133.421875 62.058594 C 132.800781 62.503906 131.71875 61.855469 131.4375 62.957031 C 131.542969 63.453125 131.75 63.90625 132.0625 64.308594 C 132.375 64.710938 132.761719 65.023438 133.21875 65.25 Z M 133.21875 65.25 " fill-opacity="1" fill-rule="nonzero"/><path fill="#ffffff" d="M 47.589844 209.699219 C 49.175781 208.332031 49.175781 208.332031 50.941406 204.523438 C 51.070312 203.761719 51.152344 203 51.1875 202.230469 C 51.179688 201.59375 51.070312 200.976562 50.863281 200.378906 C 50.722656 200.09375 50.496094 199.921875 50.183594 199.859375 C 49.960938 199.859375 49.714844 200.132812 49.46875 200.292969 C 49.425781 201.050781 49.371094 201.820312 49.332031 202.578125 C 48.996094 202.382812 48.636719 202.292969 48.253906 202.316406 C 47.867188 202.335938 47.519531 202.460938 47.207031 202.6875 C 47.019531 203.421875 46.832031 204.171875 46.6875 204.753906 C 47.089844 205.699219 47.777344 205.519531 48.390625 205.605469 C 48 206.894531 46.441406 207.539062 46.535156 209.167969 Z M 47.589844 209.699219 " fill-opacity="1" fill-rule="nonzero"/><path fill="#ffffff" d="M 114.035156 81.226562 C 114.347656 81.3125 114.632812 81.253906 114.886719 81.054688 C 115.308594 80.597656 115.695312 80.113281 116.054688 79.605469 L 118.9375 80.21875 L 120.738281 79.496094 C 120.488281 79.0625 120.292969 78.703125 120.089844 78.320312 L 116.832031 78.269531 L 114.75 77.089844 C 113.898438 77.628906 113.898438 77.78125 114.367188 78.890625 L 113.515625 80.484375 C 113.726562 80.785156 113.8125 81.117188 114.035156 81.226562 Z M 114.035156 81.226562 " fill-opacity="1" fill-rule="nonzero"/><path fill="#ffffff" d="M 328.160156 213.269531 C 327.828125 213.347656 327.460938 213.328125 327.246094 213.5 C 326.929688 213.808594 326.644531 214.144531 326.394531 214.507812 C 326.382812 214.851562 326.417969 215.1875 326.503906 215.519531 C 327.105469 216.671875 327.957031 217.585938 329.0625 218.265625 C 329.375 218.402344 329.703125 218.480469 330.042969 218.496094 C 330.335938 218.15625 330.585938 217.785156 330.792969 217.386719 C 330.859375 217.054688 330.859375 216.722656 330.792969 216.390625 C 329.667969 215.558594 328.789062 214.519531 328.160156 213.269531 Z M 328.160156 213.269531 " fill-opacity="1" fill-rule="nonzero"/><path fill="#ffffff" d="M 106.507812 93.519531 C 106.351562 93.949219 106.265625 94.394531 106.25 94.851562 C 106.25 95.125 106.96875 95.3125 107.460938 95.160156 C 108.195312 94.9375 108.917969 94.664062 109.625 94.417969 L 110.820312 90.367188 C 110.496094 90.417969 110.171875 90.367188 109.96875 90.519531 C 108.96875 91.234375 107.988281 91.996094 107.035156 92.769531 C 106.789062 92.972656 106.613281 93.222656 106.507812 93.519531 Z M 106.507812 93.519531 " fill-opacity="1" fill-rule="nonzero"/><g clip-path="url(#5fa4d3c8f4)"><path fill="#ffffff" d="M 191.894531 340.164062 C 191.800781 340.164062 191.75 340.386719 191.683594 340.503906 C 192.988281 344.554688 193.21875 344.972656 194.480469 345.578125 C 194.589844 345.125 194.699219 344.683594 194.820312 344.222656 C 194.128906 342.824219 193.855469 341.253906 192.917969 340.0625 C 192.574219 340.074219 192.234375 340.109375 191.894531 340.164062 Z M 191.894531 340.164062 " fill-opacity="1" fill-rule="nonzero"/></g><path fill="#ffffff" d="M 107.214844 88.210938 C 107.632812 88.410156 108.074219 88.5 108.535156 88.480469 C 109.402344 88.242188 110.253906 87.957031 111.09375 87.628906 C 110.632812 86.113281 110.097656 85.652344 108.886719 85.660156 C 108.410156 85.644531 107.976562 85.765625 107.578125 86.019531 C 107.175781 86.277344 106.886719 86.621094 106.703125 87.058594 C 106.65625 87.285156 106.679688 87.503906 106.773438 87.714844 C 106.867188 87.925781 107.015625 88.09375 107.214844 88.210938 Z M 107.214844 88.210938 " fill-opacity="1" fill-rule="nonzero"/><path fill="#ffffff" d="M 196.167969 331.5625 C 196.050781 331.296875 195.886719 331.074219 195.664062 330.886719 C 195.613281 330.84375 195.398438 330.964844 195.210938 331.023438 C 194.820312 332.132812 194.050781 333.199219 194.691406 334.605469 L 195.902344 335.039062 L 196.753906 333.769531 C 196.542969 333.042969 196.429688 332.292969 196.167969 331.5625 Z M 196.167969 331.5625 " fill-opacity="1" fill-rule="nonzero"/><path fill="#ffffff" d="M 218.421875 54.796875 C 217.921875 55.210938 217.589844 55.730469 217.417969 56.355469 C 217.246094 56.976562 217.265625 57.59375 217.480469 58.207031 C 217.804688 58.105469 218.199219 58.113281 218.378906 57.917969 C 218.753906 57.515625 219.015625 57.050781 219.164062 56.523438 C 219.316406 55.996094 219.335938 55.460938 219.230469 54.921875 C 218.964844 54.871094 218.546875 54.683594 218.421875 54.796875 Z M 218.421875 54.796875 " fill-opacity="1" fill-rule="nonzero"/><path fill="#ffffff" d="M 86.574219 110.617188 C 86.359375 110.941406 86.453125 111.46875 86.402344 111.9375 C 87.117188 112.203125 87.699219 112.433594 88.292969 112.636719 C 88.460938 112.664062 88.625 112.664062 88.789062 112.636719 L 89.503906 112.097656 C 89.511719 111.695312 89.398438 111.328125 89.171875 110.996094 C 88.945312 110.664062 88.644531 110.425781 88.269531 110.285156 C 87.984375 110.117188 87.679688 110.066406 87.359375 110.128906 C 87.035156 110.191406 86.773438 110.355469 86.574219 110.617188 Z M 86.574219 110.617188 " fill-opacity="1" fill-rule="nonzero"/><path fill="#ffffff" d="M 331.042969 211.097656 C 330.136719 212.230469 330.632812 213.296875 330.949219 214.34375 C 331.671875 214.832031 331.671875 214.832031 332.105469 214.574219 C 332.609375 213.652344 332.335938 212.714844 332.105469 211.675781 Z M 331.042969 211.097656 " fill-opacity="1" fill-rule="nonzero"/><path fill="#ffffff" d="M 112.382812 82.085938 C 112.296875 81.011719 112.382812 80.210938 111.527344 79.640625 L 110.34375 79.980469 C 109.796875 81.917969 110.011719 82.171875 112.382812 82.085938 Z M 112.382812 82.085938 " fill-opacity="1" fill-rule="nonzero"/><g clip-path="url(#f864bbbe7c)"><path fill="#ffffff" d="M 221.269531 39.167969 C 220.578125 38.867188 219.945312 38.367188 219.136719 38.511719 C 218.011719 38.886719 217.832031 39.671875 218.121094 40.667969 C 219.128906 40.421875 220.140625 40.199219 221.132812 39.902344 C 221.457031 39.808594 221.472656 39.464844 221.269531 39.167969 Z M 221.269531 39.167969 " fill-opacity="1" fill-rule="nonzero"/></g><path fill="#ffffff" d="M 65.820312 174.902344 C 65.34375 174.605469 64.824219 174.472656 64.261719 174.503906 C 63.699219 174.539062 63.199219 174.730469 62.757812 175.082031 L 63.867188 176.351562 C 65.0625 176.394531 65.769531 176.035156 65.820312 174.902344 Z M 65.820312 174.902344 " fill-opacity="1" fill-rule="nonzero"/><path fill="#ffffff" d="M 211.121094 326.785156 C 210.742188 326.910156 210.441406 327.140625 210.222656 327.476562 C 210.003906 327.8125 209.914062 328.179688 209.953125 328.578125 C 210.210938 328.769531 210.5 328.859375 210.824219 328.839844 C 211.144531 328.824219 211.421875 328.703125 211.660156 328.484375 C 211.914062 328.289062 212.070312 328.03125 212.128906 327.714844 C 212.175781 327.398438 212.101562 327.117188 211.90625 326.863281 C 211.65625 326.703125 211.394531 326.675781 211.121094 326.785156 Z M 211.121094 326.785156 " fill-opacity="1" fill-rule="nonzero"/><path fill="#ffffff" d="M 55.433594 232.675781 C 54.964844 232.613281 54.507812 232.65625 54.058594 232.808594 C 53.609375 232.957031 53.214844 233.195312 52.878906 233.527344 C 52.878906 233.671875 52.785156 233.851562 52.878906 233.972656 C 53.023438 234.234375 53.191406 234.488281 53.371094 234.730469 C 54.515625 234.585938 55.351562 234.015625 55.433594 232.675781 Z M 55.433594 232.675781 " fill-opacity="1" fill-rule="nonzero"/><path fill="#ffffff" d="M 58.964844 198.265625 C 59.066406 198.078125 58.964844 197.769531 58.90625 197.523438 C 58.523438 197.171875 57.925781 197.191406 57.761719 197.609375 C 57.683594 197.871094 57.714844 198.121094 57.855469 198.359375 C 57.925781 198.445312 58.011719 198.507812 58.117188 198.550781 C 58.21875 198.597656 58.324219 198.613281 58.433594 198.605469 C 58.546875 198.59375 58.648438 198.558594 58.742188 198.5 C 58.835938 198.441406 58.910156 198.359375 58.964844 198.265625 Z M 58.964844 198.265625 " fill-opacity="1" fill-rule="nonzero"/><path fill="#ffffff" d="M 142.980469 54.898438 L 142.886719 54.898438 L 142.820312 54.957031 L 142.886719 55.015625 Z M 142.980469 54.898438 " fill-opacity="1" fill-rule="nonzero"/><path fill="#ffffff" d="M 141.292969 55.589844 C 141.917969 55.636719 142.425781 55.417969 142.820312 54.933594 C 142.640625 54.699219 142.414062 54.527344 142.140625 54.414062 C 141.867188 54.304688 141.585938 54.273438 141.292969 54.316406 C 141.011719 54.449219 140.847656 54.667969 140.808594 54.976562 C 140.851562 55.273438 141.011719 55.476562 141.292969 55.589844 Z M 141.292969 55.589844 " fill-opacity="1" fill-rule="nonzero"/><path fill="#ffffff" d="M 119.953125 81.917969 C 120.097656 82.273438 120.394531 82.445312 120.703125 82.242188 C 120.90625 82.019531 121.042969 81.765625 121.113281 81.472656 C 121.027344 81.34375 120.90625 81.265625 120.753906 81.234375 C 120.453125 81.273438 120.171875 81.355469 119.902344 81.492188 C 119.867188 81.507812 119.933594 81.773438 119.953125 81.917969 Z M 119.953125 81.917969 " fill-opacity="1" fill-rule="nonzero"/><path fill="#ffffff" d="M 68.898438 177.75 C 68.773438 177.492188 68.605469 177.269531 68.394531 177.078125 C 68.105469 176.847656 67.839844 176.90625 67.765625 177.164062 C 67.722656 177.308594 67.742188 177.445312 67.824219 177.570312 C 68.121094 177.835938 68.453125 178.058594 68.847656 178.347656 C 68.878906 178.03125 68.949219 177.863281 68.898438 177.75 Z M 68.898438 177.75 " fill-opacity="1" fill-rule="nonzero"/><g clip-path="url(#4c51efa4fd)"><path fill="#ffffff" d="M 344.042969 146.921875 C 343.847656 147.117188 343.53125 147.277344 343.480469 147.507812 C 343.445312 147.617188 343.4375 147.726562 343.460938 147.839844 C 343.484375 147.949219 343.53125 148.050781 343.605469 148.136719 C 343.679688 148.222656 343.769531 148.289062 343.875 148.328125 C 343.984375 148.367188 344.09375 148.378906 344.207031 148.359375 C 344.351562 148.09375 344.441406 147.808594 344.476562 147.507812 C 344.46875 147.320312 344.195312 147.125 344.042969 146.921875 Z M 344.042969 146.921875 " fill-opacity="1" fill-rule="nonzero"/></g><path fill="#ffffff" d="M 150.851562 51.871094 C 150.925781 51.871094 150.902344 51.589844 150.917969 51.445312 C 150.640625 51.347656 150.355469 51.265625 150.066406 51.207031 C 149.898438 51.207031 149.773438 51.277344 149.683594 51.417969 C 149.644531 51.488281 149.625 51.5625 149.625 51.640625 C 149.625 51.71875 149.644531 51.792969 149.679688 51.859375 C 149.71875 51.929688 149.773438 51.984375 149.839844 52.027344 C 149.90625 52.066406 149.980469 52.089844 150.058594 52.09375 C 150.34375 52.089844 150.605469 52.015625 150.851562 51.871094 Z M 150.851562 51.871094 " fill-opacity="1" fill-rule="nonzero"/><path fill="#ffffff" d="M 151.011719 322.644531 C 150.78125 322.644531 150.507812 322.832031 150.261719 322.941406 C 150.261719 323.085938 150.167969 323.351562 150.210938 323.367188 C 150.472656 323.527344 150.757812 323.605469 151.0625 323.605469 C 151.277344 323.605469 151.457031 323.308594 151.652344 323.144531 C 151.414062 322.96875 151.242188 322.667969 151.011719 322.644531 Z M 151.011719 322.644531 " fill-opacity="1" fill-rule="nonzero"/><path fill="#ffffff" d="M 115.195312 284.777344 C 115.136719 284.890625 115.195312 285.050781 115.195312 285.179688 C 115.441406 285.128906 115.679688 285.054688 115.910156 284.957031 C 115.960938 284.957031 115.910156 284.617188 115.910156 284.574219 C 115.855469 284.523438 115.789062 284.492188 115.714844 284.476562 C 115.640625 284.457031 115.570312 284.460938 115.496094 284.480469 C 115.425781 284.503906 115.363281 284.539062 115.308594 284.589844 C 115.253906 284.644531 115.214844 284.707031 115.195312 284.777344 Z M 115.195312 284.777344 " fill-opacity="1" fill-rule="nonzero"/><path fill="#ffffff" d="M 53.472656 184.792969 C 53.535156 184.664062 53.558594 184.402344 53.472656 184.375 C 53.335938 184.292969 53.191406 184.277344 53.039062 184.328125 C 52.886719 184.382812 52.78125 184.480469 52.722656 184.632812 C 52.722656 184.777344 52.722656 184.921875 52.722656 185.066406 C 52.867188 185.097656 53.007812 185.097656 53.148438 185.066406 C 53.292969 185.015625 53.398438 184.921875 53.472656 184.792969 Z M 53.472656 184.792969 " fill-opacity="1" fill-rule="nonzero"/><path fill="#ffffff" d="M 297.039062 291.292969 C 296.890625 291.339844 296.78125 291.433594 296.71875 291.574219 C 296.652344 291.714844 296.652344 291.859375 296.714844 292 C 296.855469 292.023438 296.992188 292.023438 297.132812 292 C 297.285156 291.960938 297.390625 291.867188 297.457031 291.726562 C 297.519531 291.582031 297.519531 291.441406 297.449219 291.300781 C 297.390625 291.265625 297.125 291.25 297.039062 291.292969 Z M 297.039062 291.292969 " fill-opacity="1" fill-rule="nonzero"/><path fill="#ffffff" d="M 40.789062 237.886719 C 40.734375 237.96875 40.632812 238.074219 40.652344 238.148438 C 40.667969 238.226562 40.769531 238.429688 40.882812 238.464844 C 41.257812 238.59375 41.359375 238.464844 41.128906 238.074219 C 41.070312 237.996094 40.90625 237.945312 40.789062 237.886719 Z M 40.789062 237.886719 " fill-opacity="1" fill-rule="nonzero"/><path fill="#ffffff" d="M 50.847656 188.160156 L 50.148438 188.433594 C 50.457031 188.636719 50.8125 189.039062 50.847656 188.160156 Z M 50.847656 188.160156 " fill-opacity="1" fill-rule="nonzero"/><path fill="#ffffff" d="M 50.148438 188.433594 L 50.046875 188.367188 L 50.046875 188.460938 Z M 50.148438 188.433594 " fill-opacity="1" fill-rule="nonzero"/><path fill="#ffffff" d="M 96.128906 104.46875 L 96.128906 104.390625 L 96.078125 104.390625 C 96.09375 104.421875 96.109375 104.445312 96.128906 104.46875 Z M 96.128906 104.46875 " fill-opacity="1" fill-rule="nonzero"/><path fill="#ffffff" d="M 96.25 104.785156 C 96.25 104.785156 96.191406 104.605469 96.128906 104.46875 C 95.96875 104.835938 96.011719 104.988281 96.25 104.785156 Z M 96.25 104.785156 " fill-opacity="1" fill-rule="nonzero"/><path fill="#ffffff" d="M 108.3125 79.1875 L 108.1875 79.453125 L 108.476562 79.402344 Z M 108.3125 79.1875 " fill-opacity="1" fill-rule="nonzero"/><path fill="#ffffff" d="M 227.570312 70.03125 L 228.164062 69.859375 C 227.976562 69.632812 227.671875 69.257812 227.570312 70.03125 Z M 227.570312 70.03125 " fill-opacity="1" fill-rule="nonzero"/><path fill="#ffffff" d="M 228.335938 69.835938 L 228.257812 69.792969 L 228.164062 69.792969 L 228.257812 69.859375 C 228.257812 69.859375 228.308594 69.859375 228.335938 69.835938 Z M 228.335938 69.835938 " fill-opacity="1" fill-rule="nonzero"/><path fill="#ffffff" d="M 228.882812 69.835938 C 228.746094 69.613281 228.558594 69.640625 228.335938 69.835938 C 228.421875 69.90625 228.519531 69.957031 228.625 69.988281 C 228.703125 70.03125 228.882812 69.835938 228.882812 69.835938 Z M 228.882812 69.835938 " fill-opacity="1" fill-rule="nonzero"/><g clip-path="url(#3b8192e906)"><path fill="#02234d" d="M 161.242188 186.195312 L 110.089844 186.195312 C 101.320312 186.191406 99.457031 186.113281 99.449219 177.4375 L 99.429688 147.144531 C 99.378906 140.050781 105.015625 140.480469 110.238281 140.476562 L 158.59375 140.449219 C 157.65625 140.292969 156.730469 139.71875 155.835938 139.367188 L 152.777344 138.140625 C 148.542969 136.414062 144.054688 134.613281 140.28125 132 C 125.476562 121.761719 127.273438 100.871094 145.917969 96.117188 C 163.867188 91.539062 177.722656 103.859375 186.445312 118.523438 L 189.378906 123.753906 C 190.230469 125.386719 191.027344 127.066406 192.019531 128.625 C 192.277344 128.371094 192.433594 127.972656 192.605469 127.648438 L 196.109375 121.183594 C 203.175781 108.980469 213.984375 95.359375 229.484375 95.210938 C 230.914062 95.199219 232.398438 95.140625 233.816406 95.277344 C 247.722656 96.597656 258.167969 108.777344 252.03125 122.398438 C 248.417969 130.429688 240.875 134.164062 233.15625 137.253906 L 224.882812 140.484375 L 273.042969 140.476562 C 277.949219 140.480469 284.554688 139.777344 284.59375 146.679688 L 284.609375 177.679688 C 284.617188 181.289062 284.476562 185.503906 279.644531 186.160156 C 278.875 186.261719 278.039062 186.195312 277.261719 186.199219 L 208.050781 186.195312 L 208.066406 147.007812 L 176.027344 146.953125 L 176.019531 186.195312 Z M 151.671875 105.410156 C 141.1875 105.949219 135.390625 115.207031 144.613281 123.046875 C 148.683594 126.507812 156.980469 129 161.996094 130.621094 L 174.867188 134.636719 L 184.214844 137.167969 C 181.832031 134.445312 180.011719 131.335938 178.007812 128.332031 C 173.007812 120.839844 164.671875 108.152344 155.539062 105.648438 C 154.417969 105.34375 152.835938 105.34375 151.671875 105.410156 Z M 230.609375 105.398438 C 222.941406 106.234375 217.324219 113.304688 212.820312 118.90625 L 199.628906 137.347656 L 210.308594 134.210938 C 217.996094 131.882812 225.78125 129.835938 233.15625 126.597656 C 237.011719 124.90625 240.449219 123.214844 242.503906 119.339844 C 247.445312 110.015625 238.933594 104.757812 230.609375 105.398438 Z M 230.609375 105.398438 " fill-opacity="1" fill-rule="nonzero"/></g><g clip-path="url(#ddb34321f8)"><path fill="#02234d" d="M 273.636719 200.167969 L 273.558594 281.355469 C 273.136719 286.910156 269.109375 291.667969 263.429688 292.210938 C 260.914062 292.453125 258.234375 292.28125 255.703125 292.28125 L 128.171875 292.277344 C 125.515625 292.277344 122.722656 292.449219 120.085938 292.203125 C 115.058594 291.738281 111.019531 286.980469 110.445312 282.136719 C 110.292969 280.851562 110.402344 279.4375 110.402344 278.144531 L 110.40625 200.324219 C 110.40625 198.296875 110.3125 196.222656 110.503906 194.203125 L 175.988281 194.269531 C 176.085938 195.230469 176.015625 196.265625 176.015625 197.234375 L 176.027344 285.863281 L 208.050781 285.863281 L 208.027344 194.246094 L 273.59375 194.226562 C 273.792969 196.148438 273.636719 198.230469 273.636719 200.167969 Z M 273.636719 200.167969 " fill-opacity="1" fill-rule="nonzero"/></g></svg>